<mxfile host="app.diagrams.net" modified="2021-10-31T13:38:14.545Z" agent="5.0 (Windows NT 10.0; Win64; x64) AppleWebKit/537.36 (KHTML, like Gecko) Chrome/95.0.4638.54 Safari/537.36" etag="5MvYT-DNM7mLMrioFzZP" version="15.5.0" type="github">
  <diagram id="fpE3rJZCKHkUnjjX4ydw" name="第 1 页">
    <mxGraphModel dx="2377" dy="972" grid="1" gridSize="10" guides="1" tooltips="1" connect="1" arrows="1" fold="1" page="1" pageScale="1" pageWidth="827" pageHeight="1169" math="0" shadow="0">
      <root>
        <mxCell id="0" />
        <mxCell id="1" parent="0" />
        <mxCell id="X6iJabfwmCCyM0tsu5hm-1" value="Resource" style="whiteSpace=wrap;html=1;" vertex="1" parent="1">
          <mxGeometry x="-160" y="100" width="140" height="70" as="geometry" />
        </mxCell>
        <mxCell id="X6iJabfwmCCyM0tsu5hm-2" style="edgeStyle=orthogonalEdgeStyle;rounded=0;orthogonalLoop=1;jettySize=auto;html=1;exitX=0.5;exitY=1;exitDx=0;exitDy=0;" edge="1" parent="1" source="X6iJabfwmCCyM0tsu5hm-1" target="X6iJabfwmCCyM0tsu5hm-1">
          <mxGeometry relative="1" as="geometry" />
        </mxCell>
        <mxCell id="X6iJabfwmCCyM0tsu5hm-3" value="Configuration" style="whiteSpace=wrap;html=1;" vertex="1" parent="1">
          <mxGeometry x="-160" y="250" width="90" height="40" as="geometry" />
        </mxCell>
        <mxCell id="X6iJabfwmCCyM0tsu5hm-4" value="MappedStatement" style="whiteSpace=wrap;html=1;" vertex="1" parent="1">
          <mxGeometry x="-160" y="320" width="120" height="40" as="geometry" />
        </mxCell>
        <mxCell id="X6iJabfwmCCyM0tsu5hm-7" value="&lt;pre style=&quot;background-color: rgb(43 , 43 , 43) ; color: rgb(169 , 183 , 198) ; font-family: &amp;#34;consolas&amp;#34; , monospace ; font-size: 11.3pt&quot;&gt;InputStream &lt;span style=&quot;color: rgb(255 , 198 , 109)&quot;&gt;getResourceAsStream&lt;/span&gt;&lt;span style=&quot;color: rgb(152 , 118 , 170) ; font-style: italic&quot;&gt;(&lt;/span&gt;String path&lt;span style=&quot;color: rgb(152 , 118 , 170) ; font-style: italic&quot;&gt;)&lt;/span&gt;&lt;/pre&gt;" style="text;html=1;align=center;verticalAlign=middle;resizable=0;points=[];autosize=1;strokeColor=none;fillColor=none;" vertex="1" parent="1">
          <mxGeometry x="-10" y="100" width="380" height="50" as="geometry" />
        </mxCell>
        <mxCell id="X6iJabfwmCCyM0tsu5hm-8" value="主要是数据源相关内容&lt;br&gt;核心配置类：存放sqlMapConfig.xml解析出来的内容" style="text;html=1;align=left;verticalAlign=middle;resizable=0;points=[];autosize=1;strokeColor=none;fillColor=none;fontStyle=1" vertex="1" parent="1">
          <mxGeometry x="-50" y="255" width="300" height="30" as="geometry" />
        </mxCell>
        <mxCell id="X6iJabfwmCCyM0tsu5hm-9" value="主要是sql语句&lt;br&gt;映射配置类：存放mapper.xml解析出来的内容" style="text;html=1;align=left;verticalAlign=middle;resizable=0;points=[];autosize=1;strokeColor=none;fillColor=none;fontStyle=1" vertex="1" parent="1">
          <mxGeometry x="-30" y="325" width="260" height="30" as="geometry" />
        </mxCell>
        <mxCell id="X6iJabfwmCCyM0tsu5hm-21" style="edgeStyle=orthogonalEdgeStyle;rounded=0;orthogonalLoop=1;jettySize=auto;html=1;exitX=1;exitY=1;exitDx=0;exitDy=0;entryX=0;entryY=0.25;entryDx=0;entryDy=0;" edge="1" parent="1" source="X6iJabfwmCCyM0tsu5hm-10" target="X6iJabfwmCCyM0tsu5hm-16">
          <mxGeometry relative="1" as="geometry">
            <Array as="points">
              <mxPoint x="120" y="450" />
              <mxPoint x="120" y="450" />
            </Array>
          </mxGeometry>
        </mxCell>
        <mxCell id="X6iJabfwmCCyM0tsu5hm-10" value="SqlSessionFactoryBuilder" style="whiteSpace=wrap;html=1;align=center;" vertex="1" parent="1">
          <mxGeometry x="-165" y="410" width="150" height="40" as="geometry" />
        </mxCell>
        <mxCell id="X6iJabfwmCCyM0tsu5hm-11" value="&lt;pre style=&quot;background-color: #2b2b2b ; color: #a9b7c6 ; font-family: &amp;#34;consolas&amp;#34; , monospace ; font-size: 11.3pt&quot;&gt;SqlSessionFactory &lt;span style=&quot;color: #ffc66d&quot;&gt;build&lt;/span&gt;&lt;span style=&quot;color: #9876aa ; font-style: italic&quot;&gt;(&lt;/span&gt;InputStream in&lt;span style=&quot;color: #9876aa ; font-style: italic&quot;&gt;)&lt;/span&gt;&lt;/pre&gt;" style="text;html=1;align=center;verticalAlign=middle;resizable=0;points=[];autosize=1;strokeColor=none;fillColor=none;" vertex="1" parent="1">
          <mxGeometry y="405" width="340" height="50" as="geometry" />
        </mxCell>
        <mxCell id="X6iJabfwmCCyM0tsu5hm-14" value="①使用dom4j解析配置文件，将解析的内容封装到容器对象" style="whiteSpace=wrap;html=1;align=center;" vertex="1" parent="1">
          <mxGeometry x="410" y="373" width="160" height="50" as="geometry" />
        </mxCell>
        <mxCell id="X6iJabfwmCCyM0tsu5hm-16" value="②创建sqlSessionFactory对象：工厂类：生产sqlSession:会话对象" style="whiteSpace=wrap;html=1;align=center;" vertex="1" parent="1">
          <mxGeometry x="410" y="440" width="200" height="40" as="geometry" />
        </mxCell>
        <mxCell id="X6iJabfwmCCyM0tsu5hm-18" style="edgeStyle=orthogonalEdgeStyle;rounded=0;orthogonalLoop=1;jettySize=auto;html=1;exitX=1;exitY=0;exitDx=0;exitDy=0;entryX=0;entryY=0.75;entryDx=0;entryDy=0;" edge="1" parent="1" source="X6iJabfwmCCyM0tsu5hm-10" target="X6iJabfwmCCyM0tsu5hm-14">
          <mxGeometry relative="1" as="geometry">
            <mxPoint y="410" as="sourcePoint" />
            <mxPoint x="385" y="410" as="targetPoint" />
            <Array as="points">
              <mxPoint x="-15" y="411" />
              <mxPoint x="198" y="411" />
            </Array>
          </mxGeometry>
        </mxCell>
      </root>
    </mxGraphModel>
  </diagram>
</mxfile>
